<svg width="20" height="20" viewBox="0 0 20 20" fill="none" xmlns="http://www.w3.org/2000/svg">
<g id="vuesax/linear/copy">
<g id="copy">
<path id="Vector" d="M13.3332 10.75V14.25C13.3332 17.1667 12.1665 18.3334 9.24984 18.3334H5.74984C2.83317 18.3334 1.6665 17.1667 1.6665 14.25V10.75C1.6665 7.83335 2.83317 6.66669 5.74984 6.66669H9.24984C12.1665 6.66669 13.3332 7.83335 13.3332 10.75Z" stroke="#8F55EA" stroke-width="1.5" stroke-linecap="round" stroke-linejoin="round"/>
<path id="Vector_2" d="M18.3332 5.75002V9.25002C18.3332 12.1667 17.1665 13.3334 14.2498 13.3334H13.3332V10.75C13.3332 7.83335 12.1665 6.66669 9.24984 6.66669H6.6665V5.75002C6.6665 2.83335 7.83317 1.66669 10.7498 1.66669H14.2498C17.1665 1.66669 18.3332 2.83335 18.3332 5.75002Z" stroke="#8F55EA" stroke-width="1.5" stroke-linecap="round" stroke-linejoin="round"/>
</g>
</g>
</svg>
