<svg xmlns="http://www.w3.org/2000/svg" width="24" height="25" viewBox="0 0 24 25" fill="none">
  <path d="M21.49 8.30863V8.31V16.69C21.49 18.4106 20.9791 19.7238 20.0964 20.6064C19.2138 21.4891 17.9006 22 16.18 22H7.81C6.08945 22 4.77634 21.4891 3.89377 20.6054C3.01114 19.7217 2.5 18.4059 2.5 16.68V8.31C2.5 6.58944 3.01093 5.27618 3.89355 4.39355C4.77618 3.51093 6.08944 3 7.81 3H16.19C17.9107 3 19.2237 3.51097 20.105 4.39333C20.9861 5.27559 21.4947 6.58838 21.49 8.30863ZM8.11645 11.1264L8.1164 11.1264L8.11051 11.1325C7.63641 11.6229 7.62794 12.405 8.11645 12.8936L11.1164 15.8936C11.2394 16.0165 11.3746 16.0981 11.5069 16.1569L11.5155 16.1607L11.5243 16.1642C11.672 16.2233 11.8252 16.26 12 16.26C12.1653 16.26 12.335 16.2272 12.4931 16.1569C12.6254 16.0981 12.7606 16.0165 12.8836 15.8936L15.8836 12.8936C16.3688 12.4083 16.3688 11.6117 15.8836 11.1264C15.3983 10.6412 14.6017 10.6412 14.1164 11.1264L13.25 11.9929V7.01C13.25 6.32386 12.6861 5.76 12 5.76C11.3139 5.76 10.75 6.32386 10.75 7.01V11.9929L9.88355 11.1264C9.39829 10.6412 8.60171 10.6412 8.11645 11.1264ZM19.1989 16.6263L19.1967 16.6191L19.1943 16.6119C18.9753 15.9547 18.2586 15.6101 17.6119 15.8257C13.9955 17.0311 10.0177 17.0314 6.40118 15.8267C5.72975 15.5941 5.03035 15.9678 4.81566 16.6119C4.60007 17.2586 4.94473 17.9753 5.60189 18.1943C7.66324 18.8815 9.82666 19.23 12 19.23C14.1733 19.23 16.3368 18.8815 18.3981 18.1943C19.0552 17.9753 19.3933 17.2742 19.1989 16.6263Z" fill="white" stroke="white"/>
</svg>