<svg width="20" height="20" viewBox="0 0 20 20" fill="none" xmlns="http://www.w3.org/2000/svg">
<g id="Social icon" clip-path="url(#clip0_795_3414)">
<path id="Union" fill-rule="evenodd" clip-rule="evenodd" d="M14.0353 5.45655C13.0028 4.4718 11.6249 3.93533 10.1992 3.95738C7.59036 3.95738 5.37468 5.71742 4.58467 8.08742V8.08748C4.16578 9.32944 4.16578 10.6743 4.58466 11.9162H4.58833C5.38201 14.2826 7.59403 16.0426 10.2029 16.0426C11.5496 16.0426 12.7057 15.6982 13.6018 15.0898V15.0873C14.6563 14.3892 15.3765 13.2905 15.6007 12.0485H10.1992V8.19772H19.6315C19.7491 8.86647 19.8042 9.54992 19.8042 10.2297C19.8042 13.2712 18.7172 15.8427 16.8259 17.5844L16.8279 17.5859C15.1707 19.1145 12.8963 20 10.1992 20C6.41821 20 2.96055 17.8688 1.26296 14.492V14.492C-0.155365 11.6664 -0.155362 8.33733 1.26297 5.51169H1.26299L1.26296 5.51167C2.96055 2.13118 6.41821 2.50159e-06 10.1992 2.50159e-06C12.6831 -0.0293931 15.0825 0.903916 16.8904 2.60151L14.0353 5.45655Z" fill="white"/>
</g>
<defs>
<clipPath id="clip0_795_3414">
<rect width="20" height="20" fill="white"/>
</clipPath>
</defs>
</svg>
