<svg width="31" height="32" viewBox="0 0 31 32" fill="none" xmlns="http://www.w3.org/2000/svg">
<path opacity="0.4" d="M10.0925 3.08105H20.9037C25.6183 3.08105 28.4212 5.88397 28.4212 10.5856V21.3969C28.4212 26.0986 25.6183 28.9015 20.9166 28.9015H10.0925C5.39081 28.9144 2.58789 26.1115 2.58789 21.4098V10.5856C2.58789 5.88397 5.39081 3.08105 10.0925 3.08105Z" fill="#B180FF"/>
<path d="M17.9742 12.1017H11.3221L11.7483 11.6755C12.1229 11.3009 12.1229 10.6809 11.7483 10.3063C11.3737 9.93174 10.7537 9.93174 10.3792 10.3063L8.35125 12.3342C7.97667 12.7088 7.97667 13.3288 8.35125 13.7034L10.3792 15.7313C10.5729 15.9251 10.8183 16.0155 11.0637 16.0155C11.3092 16.0155 11.5546 15.9251 11.7483 15.7313C12.1229 15.3567 12.1229 14.7367 11.7483 14.3622L11.4125 14.0263H17.9742C19.6275 14.0263 20.9837 15.3697 20.9837 17.0359C20.9837 18.7022 19.6404 20.0455 17.9742 20.0455H11.6192C11.0896 20.0455 10.6504 20.4847 10.6504 21.0142C10.6504 21.5438 11.0896 21.983 11.6192 21.983H17.9742C20.6996 21.983 22.9212 19.7613 22.9212 17.0359C22.9212 14.3105 20.6996 12.1017 17.9742 12.1017Z" fill="#B180FF"/>
</svg>
