<svg xmlns="http://www.w3.org/2000/svg" width="24" height="24" viewBox="0 0 24 24" fill="none">
  <path d="M9.77002 5.86V2.5H14.23V5.86H9.77002Z" fill="#8F55EA" stroke="#8F55EA"/>
  <path d="M21.238 5.86H16.73V2.51688C17.9621 2.59735 18.961 2.96183 19.7144 3.54731C20.4272 4.10119 20.9492 4.87492 21.238 5.86Z" fill="#8F55EA" stroke="#8F55EA"/>
  <path d="M14.6899 16.6131L14.6899 16.6131L14.6947 16.6102C15.5385 16.1106 16.13 15.3837 16.13 14.47C16.13 13.5669 15.5609 12.8049 14.6889 12.3063C14.6886 12.3062 14.6883 12.306 14.6881 12.3059L12.6123 11.1083C12.6119 11.1081 12.6115 11.1078 12.6111 11.1076C11.7446 10.6016 10.8055 10.4781 10.0199 10.937C9.23371 11.386 8.87 12.2704 8.87 13.26V15.66C8.87 16.6508 9.23458 17.5361 10.0227 17.9846L10.0257 17.9862C10.3526 18.1693 10.7071 18.26 11.09 18.26C11.598 18.26 12.1128 18.0955 12.607 17.8147L12.607 17.8147L12.6099 17.8131L14.6899 16.6131ZM2.5 16.19V8.35999H21.5V16.19C21.5 17.9106 20.9891 19.2238 20.1064 20.1064C19.2238 20.9891 17.9106 21.5 16.19 21.5H7.81C6.08944 21.5 4.77618 20.9891 3.89355 20.1064C3.01093 19.2238 2.5 17.9106 2.5 16.19Z" fill="#8F55EA" stroke="#8F55EA"/>
  <path d="M7.27 5.86H2.76199C3.05082 4.87492 3.57276 4.10119 4.28555 3.54731C5.03902 2.96183 6.03786 2.59735 7.27 2.51688V5.86Z" fill="#8F55EA" stroke="#8F55EA"/>
</svg>