<svg width="25" height="25" viewBox="0 0 25 25" fill="none" xmlns="http://www.w3.org/2000/svg">
<path d="M12.5 3.20752C10.5716 3.20752 8.68657 3.77935 7.08319 4.85069C5.47982 5.92203 4.23013 7.44478 3.49218 9.22636C2.75422 11.0079 2.56114 12.9683 2.93735 14.8597C3.31355 16.751 4.24215 18.4882 5.60571 19.8518C6.96928 21.2154 8.70656 22.144 10.5979 22.5202C12.4892 22.8964 14.4496 22.7033 16.2312 21.9653C18.0127 21.2274 19.5355 19.9777 20.6068 18.3743C21.6782 16.7709 22.25 14.8859 22.25 12.9575C22.2473 10.3725 21.2192 7.89413 19.3913 6.06624C17.5634 4.23836 15.085 3.21025 12.5 3.20752ZM16.7806 11.2381L11.5306 16.4881C11.461 16.5579 11.3783 16.6132 11.2872 16.6509C11.1962 16.6887 11.0986 16.7081 11 16.7081C10.9014 16.7081 10.8038 16.6887 10.7128 16.6509C10.6218 16.6132 10.539 16.5579 10.4694 16.4881L8.21938 14.2381C8.07865 14.0974 7.99959 13.9065 7.99959 13.7075C7.99959 13.5085 8.07865 13.3176 8.21938 13.1769C8.36011 13.0362 8.55098 12.9571 8.75 12.9571C8.94903 12.9571 9.1399 13.0362 9.28063 13.1769L11 14.8972L15.7194 10.1769C15.7891 10.1072 15.8718 10.0519 15.9628 10.0142C16.0539 9.97651 16.1515 9.9571 16.25 9.9571C16.3486 9.9571 16.4461 9.97651 16.5372 10.0142C16.6282 10.0519 16.7109 10.1072 16.7806 10.1769C16.8503 10.2466 16.9056 10.3293 16.9433 10.4203C16.981 10.5114 17.0004 10.609 17.0004 10.7075C17.0004 10.8061 16.981 10.9036 16.9433 10.9947C16.9056 11.0857 16.8503 11.1685 16.7806 11.2381Z" fill="#8F55EA"/>
</svg>
