<svg width="13" height="13" viewBox="0 0 13 13" fill="none" xmlns="http://www.w3.org/2000/svg">
<path d="M10.8009 6.89491L7.41207 10.2837C7.30596 10.3898 7.16205 10.4494 7.012 10.4494C6.86195 10.4494 6.71804 10.3898 6.61193 10.2837C6.50583 10.1776 6.44622 10.0337 6.44622 9.88365C6.44622 9.73359 6.50583 9.58969 6.61193 9.48358L9.03634 7.06012H2.11753C1.96774 7.06012 1.82408 7.00061 1.71816 6.89469C1.61224 6.78877 1.55273 6.64511 1.55273 6.49532C1.55273 6.34552 1.61224 6.20186 1.71816 6.09594C1.82408 5.99002 1.96774 5.93052 2.11753 5.93052H9.03634L6.61287 3.50564C6.50677 3.39954 6.44716 3.25563 6.44716 3.10557C6.44716 2.95552 6.50677 2.81161 6.61287 2.70551C6.71898 2.5994 6.86289 2.53979 7.01294 2.53979C7.16299 2.53979 7.3069 2.5994 7.41301 2.70551L10.8018 6.09431C10.8545 6.14685 10.8962 6.20928 10.9247 6.27801C10.9532 6.34674 10.9678 6.42042 10.9677 6.49481C10.9676 6.5692 10.9528 6.64284 10.9242 6.7115C10.8956 6.78017 10.8537 6.8425 10.8009 6.89491Z" fill="#8F55EA"/>
</svg>
