<svg width="21" height="21" viewBox="0 0 21 21" fill="none" xmlns="http://www.w3.org/2000/svg">
<path d="M10.9061 2.51807C9.29607 2.51807 7.72219 2.9955 6.3835 3.88998C5.0448 4.78447 4.00142 6.05584 3.38529 7.54331C2.76915 9.03079 2.60794 10.6676 2.92205 12.2467C3.23615 13.8258 4.01145 15.2763 5.14992 16.4147C6.28838 17.5532 7.73888 18.3285 9.31797 18.6426C10.8971 18.9567 12.5338 18.7955 14.0213 18.1794C15.5088 17.5632 16.7802 16.5198 17.6747 15.1811C18.5691 13.8424 19.0466 12.2686 19.0466 10.6585C19.0443 8.50025 18.1859 6.43101 16.6598 4.90487C15.1336 3.37873 13.0644 2.52035 10.9061 2.51807ZM13.2277 11.1016L10.0967 14.2325C10.0386 14.2907 9.9695 14.3368 9.89349 14.3683C9.81747 14.3998 9.736 14.416 9.65372 14.416C9.57144 14.416 9.48997 14.3998 9.41395 14.3683C9.33794 14.3368 9.26887 14.2907 9.21069 14.2325C9.15251 14.1743 9.10636 14.1053 9.07487 14.0293C9.04339 13.9532 9.02718 13.8718 9.02718 13.7895C9.02718 13.7072 9.04339 13.6257 9.07487 13.5497C9.10636 13.4737 9.15251 13.4046 9.21069 13.3465L11.8994 10.6585L9.21069 7.97062C9.09319 7.85312 9.02718 7.69376 9.02718 7.52759C9.02718 7.36142 9.09319 7.20206 9.21069 7.08456C9.32819 6.96706 9.48755 6.90105 9.65372 6.90105C9.81989 6.90105 9.97925 6.96706 10.0967 7.08456L13.2277 10.2155C13.2859 10.2737 13.3321 10.3427 13.3636 10.4187C13.3951 10.4948 13.4114 10.5762 13.4114 10.6585C13.4114 10.7408 13.3951 10.8223 13.3636 10.8983C13.3321 10.9743 13.2859 11.0434 13.2277 11.1016Z" fill="#53B483"/>
</svg>
