<svg width="21" height="21" viewBox="0 0 21 21" fill="none" xmlns="http://www.w3.org/2000/svg">
<path d="M10.4725 2.51807C8.86247 2.51807 7.2886 2.9955 5.9499 3.88998C4.61121 4.78447 3.56782 6.05584 2.95169 7.54331C2.33556 9.03079 2.17435 10.6676 2.48845 12.2467C2.80255 13.8258 3.57786 15.2763 4.71632 16.4147C5.85479 17.5532 7.30528 18.3285 8.88438 18.6426C10.4635 18.9567 12.1003 18.7955 13.5877 18.1794C15.0752 17.5632 16.3466 16.5198 17.2411 15.1811C18.1355 13.8424 18.613 12.2686 18.613 10.6585C18.6107 8.50025 17.7523 6.43101 16.2262 4.90487C14.7 3.37873 12.6308 2.52035 10.4725 2.51807ZM12.7941 11.1016L9.66316 14.2325C9.60498 14.2907 9.53591 14.3368 9.45989 14.3683C9.38388 14.3998 9.3024 14.416 9.22013 14.416C9.13785 14.416 9.05637 14.3998 8.98036 14.3683C8.90434 14.3368 8.83528 14.2907 8.7771 14.2325C8.71892 14.1743 8.67277 14.1053 8.64128 14.0293C8.60979 13.9532 8.59359 13.8718 8.59359 13.7895C8.59359 13.7072 8.60979 13.6257 8.64128 13.5497C8.67277 13.4737 8.71892 13.4046 8.7771 13.3465L11.4658 10.6585L8.7771 7.97062C8.6596 7.85312 8.59359 7.69376 8.59359 7.52759C8.59359 7.36142 8.6596 7.20206 8.7771 7.08456C8.89459 6.96706 9.05396 6.90105 9.22013 6.90105C9.38629 6.90105 9.54566 6.96706 9.66316 7.08456L12.7941 10.2155C12.8523 10.2737 12.8985 10.3427 12.93 10.4187C12.9615 10.4948 12.9778 10.5762 12.9778 10.6585C12.9778 10.7408 12.9615 10.8223 12.93 10.8983C12.8985 10.9743 12.8523 11.0434 12.7941 11.1016Z" fill="#E9DDFB"/>
</svg>
