<svg width="25" height="25" viewBox="0 0 25 25" fill="none" xmlns="http://www.w3.org/2000/svg">
<path d="M15.8975 10.355L13.295 12.9575L15.8975 15.56C15.9528 15.6115 15.9971 15.6736 16.0278 15.7426C16.0586 15.8116 16.0751 15.8861 16.0764 15.9616C16.0778 16.0372 16.0639 16.1122 16.0356 16.1822C16.0073 16.2523 15.9652 16.3159 15.9118 16.3693C15.8584 16.4227 15.7947 16.4648 15.7247 16.4931C15.6547 16.5214 15.5796 16.5353 15.5041 16.534C15.4286 16.5326 15.3541 16.5161 15.2851 16.4854C15.2161 16.4546 15.154 16.4103 15.1025 16.355L12.5 13.7525L9.8975 16.355C9.79087 16.4544 9.64984 16.5085 9.50411 16.5059C9.35839 16.5033 9.21935 16.4443 9.11629 16.3412C9.01323 16.2382 8.95419 16.0991 8.95162 15.9534C8.94905 15.8077 9.00314 15.6666 9.1025 15.56L11.705 12.9575L9.1025 10.355C9.00314 10.2484 8.94905 10.1074 8.95162 9.96163C8.95419 9.8159 9.01323 9.67686 9.11629 9.5738C9.21935 9.47074 9.35839 9.41171 9.50411 9.40914C9.64984 9.40657 9.79087 9.46066 9.8975 9.56002L12.5 12.1625L15.1025 9.56002C15.2091 9.46066 15.3502 9.40657 15.4959 9.40914C15.6416 9.41171 15.7807 9.47074 15.8837 9.5738C15.9868 9.67686 16.0458 9.8159 16.0484 9.96163C16.051 10.1074 15.9969 10.2484 15.8975 10.355ZM22.0625 12.9575C22.0625 14.8488 21.5017 16.6976 20.4509 18.2702C19.4002 19.8427 17.9067 21.0684 16.1594 21.7921C14.4121 22.5159 12.4894 22.7052 10.6345 22.3363C8.77951 21.9673 7.07564 21.0566 5.7383 19.7192C4.40096 18.3819 3.49022 16.678 3.12125 14.8231C2.75227 12.9681 2.94164 11.0454 3.66541 9.29811C4.38917 7.55079 5.61482 6.05733 7.18736 5.00659C8.75991 3.95585 10.6087 3.39502 12.5 3.39502C15.0352 3.398 17.4658 4.40643 19.2584 6.1991C21.0511 7.99177 22.0595 10.4223 22.0625 12.9575ZM20.9375 12.9575C20.9375 11.2887 20.4427 9.65744 19.5155 8.2699C18.5884 6.88236 17.2706 5.8009 15.7289 5.16229C14.1871 4.52367 12.4906 4.35658 10.8539 4.68214C9.21722 5.00771 7.7138 5.8113 6.53379 6.99131C5.35379 8.17131 4.55019 9.67473 4.22463 11.3114C3.89907 12.9482 4.06616 14.6447 4.70477 16.1864C5.34338 17.7282 6.42484 19.0459 7.81238 19.973C9.19992 20.9002 10.8312 21.395 12.5 21.395C14.737 21.3925 16.8817 20.5028 18.4635 18.921C20.0453 17.3392 20.935 15.1945 20.9375 12.9575Z" fill="#969696"/>
</svg>
