<svg width="58" height="58" viewBox="0 0 58 58" fill="none" xmlns="http://www.w3.org/2000/svg">
    <path d="M51.8717 28.9986V29.0012V47.1262C51.8717 49.3472 50.9894 51.4771 49.419 53.0476C47.8485 54.6181 45.7185 55.5003 43.4976 55.5003H30.8101C30.5119 55.5003 30.226 55.3819 30.0152 55.1711C29.8044 54.9603 29.6859 54.6743 29.6859 54.3762C29.6859 54.0781 29.8044 53.7921 30.0152 53.5813C30.226 53.3705 30.5119 53.2521 30.8101 53.2521H43.4976C45.1222 53.2521 46.6804 52.6067 47.8292 51.4578C48.978 50.309 49.6234 48.7509 49.6234 47.1262V46.4378H48.9351H43.4976C42.238 46.4378 41.0301 45.9375 40.1394 45.0468C39.2488 44.1562 38.7484 42.9482 38.7484 41.6887V32.6262C38.7484 31.3667 39.2488 30.1587 40.1394 29.2681C41.0301 28.3774 42.238 27.8771 43.4976 27.8771H48.8558H49.6096L49.5413 27.1263C49.1865 23.2283 47.7299 19.5118 45.3416 16.4108C42.9533 13.3098 39.732 10.9524 36.0539 9.61384C32.3758 8.27532 28.3928 8.01099 24.57 8.85171C20.7477 9.69235 17.2434 11.6031 14.4664 14.3609C11.0126 17.7695 8.8824 22.2944 8.45592 27.1282L8.38985 27.8771H9.14162H14.4976C15.7571 27.8771 16.9651 28.3774 17.8557 29.2681C18.7463 30.1587 19.2467 31.3667 19.2467 32.6262V41.6887C19.2467 42.9482 18.7463 44.1562 17.8557 45.0468C16.9651 45.9375 15.7571 46.4378 14.4976 46.4378H10.8726C9.61301 46.4378 8.40505 45.9375 7.51441 45.0468C6.62378 44.1562 6.12342 42.9482 6.12342 41.6887V29.0016C6.12843 24.4705 7.47756 20.0428 10.0001 16.2788C12.5226 12.5146 16.1052 9.58354 20.2944 7.85645C24.4835 6.12936 29.0909 5.68392 33.5333 6.57652C37.9758 7.46912 42.0535 9.65963 45.2504 12.8708C47.3607 14.9913 49.0318 17.5074 50.168 20.2749C51.3042 23.0424 51.8832 26.0069 51.8717 28.9986Z"
          stroke="#A573EE" stroke-opacity="0.51" stroke-width="1.37673"/>
</svg>
