<svg width="52" height="48" viewBox="0 0 52 48" fill="none" xmlns="http://www.w3.org/2000/svg">
    <path d="M39.813 22.205C39.8943 23.1505 40.6339 24.2347 42.1344 25.0571C43.6545 25.8902 46.0202 26.5009 49.5606 26.5009C49.8588 26.5009 50.1447 26.6193 50.3555 26.8301C50.5663 27.0409 50.6847 27.3269 50.6847 27.625C50.6847 27.9231 50.5663 28.2091 50.3555 28.4199C50.1447 28.6307 49.8588 28.7491 49.5606 28.7491C43.2327 28.7491 40.2857 26.948 38.9123 25.3229L38.3831 24.6966L37.8579 25.3263C35.5423 28.1028 33.4524 29.0579 31.4757 28.6756L31.473 28.675C29.5253 28.3064 27.7563 26.6023 26.3147 23.2261C26.1539 22.8451 26.0067 22.4692 25.8752 22.1053L25.484 21.0231L24.7155 21.8795C22.4633 24.3891 20.3756 26.1966 18.4627 27.3285C16.5509 28.4598 14.8532 28.8939 13.3545 28.7284L12.8725 28.6751L12.6601 29.1111C12.0564 30.35 11.4532 31.5678 10.8526 32.7509L10.345 33.7509H11.4664H48.8722V33.7554H49.5606C49.8588 33.7554 50.1447 33.8738 50.3555 34.0846L50.8422 33.5979L50.3555 34.0846C50.5663 34.2955 50.6847 34.5814 50.6847 34.8795C50.6847 35.1777 50.5663 35.4636 50.3555 35.6744C50.1447 35.8852 49.8587 36.0037 49.5606 36.0037H9.58592H9.17176L8.97775 36.3696C6.10717 41.7837 3.70625 45.8184 3.42139 46.2971C3.40506 46.3246 3.39568 46.3403 3.39357 46.344L3.39174 46.3472C3.31757 46.4773 3.21812 46.5914 3.09925 46.6826C2.98037 46.7738 2.84447 46.8403 2.69953 46.8782C2.55458 46.9161 2.40352 46.9246 2.25522 46.9033C2.10691 46.882 1.96436 46.8313 1.83595 46.7541C1.70754 46.677 1.59585 46.5749 1.50745 46.4539L0.952556 46.8595L1.50744 46.4539C1.41905 46.333 1.35572 46.1956 1.32118 46.0498C1.28664 45.904 1.2816 45.7528 1.30634 45.605L0.627426 45.4913L1.30634 45.605C1.33108 45.4572 1.38511 45.3159 1.46525 45.1893L1.47195 45.1787L1.47825 45.1679C1.47794 45.1685 1.48426 45.1579 1.50338 45.1258L1.57644 45.0032C1.63945 44.8973 1.73045 44.7438 1.84671 44.5464C2.07924 44.1516 2.41278 43.5812 2.82556 42.8636C3.65106 41.4285 4.79384 39.4042 6.07975 37.0187L6.62688 36.0037H5.47381H2.43561C2.13747 36.0037 1.85154 35.8852 1.64072 35.6744C1.42991 35.4636 1.31147 35.1777 1.31147 34.8795C1.31147 34.5814 1.42991 34.2955 1.64072 34.0846C1.85154 33.8738 2.13747 33.7554 2.43561 33.7554H7.39733H7.81618L8.00869 33.3834C8.84915 31.7593 9.71548 30.0426 10.5619 28.2837L10.7952 27.799L10.3812 27.4555C8.81221 26.1538 7.65935 23.9096 7.09696 20.6433C6.53573 17.3838 6.6644 13.5154 7.45894 10.0385L7.45901 10.0382C8.12634 7.1117 9.14583 4.86804 10.3914 3.36735C11.6263 1.87965 13.0653 1.13736 14.6339 1.12587H14.6867C17.2551 1.13648 18.4713 2.41058 19.0514 3.44714L19.053 3.44988C20.2189 5.51088 20.1899 8.9736 18.649 14.2694C17.741 17.3893 16.3179 21.112 14.4024 25.3716L13.8155 26.6767L15.2015 26.3206C17.3119 25.7784 20.4389 23.7314 24.9486 18.1239L24.9846 18.0791L25.0127 18.029C25.1243 17.8299 25.294 17.6694 25.4991 17.569L25.1964 16.9507L25.4991 17.569C25.7042 17.4686 25.935 17.433 26.1608 17.4671C26.3866 17.5011 26.5966 17.6031 26.7631 17.7594C26.9289 17.9153 27.0436 18.1179 27.0918 18.3403C27.3984 19.8165 28.003 21.6817 28.7809 23.2371C29.1697 24.0147 29.6146 24.7406 30.1054 25.3057C30.5848 25.8578 31.1763 26.3351 31.8723 26.4663L31.8757 26.4669C32.9135 26.6571 34.7782 26.111 37.5568 21.9441L37.6024 21.8758L37.6306 21.7988C37.7205 21.5531 37.8932 21.3465 38.1191 21.2145C38.3449 21.0825 38.6098 21.0334 38.8679 21.0757C39.1261 21.118 39.3614 21.249 39.5333 21.4461C39.7036 21.6412 39.8011 21.8891 39.8097 22.1477V22.1875L39.8115 22.1876M39.813 22.205L39.9348 22.1934L39.8504 22.1894L39.8115 22.1876M39.813 22.205C39.8126 22.2008 39.8123 22.1967 39.8119 22.1925L39.8115 22.1876M39.813 22.205L39.8128 22.205C39.8123 22.1992 39.8119 22.1934 39.8115 22.1876M39.8128 22.1224L39.9348 22.134L39.8115 22.1398C39.8118 22.134 39.8123 22.1282 39.8128 22.1224Z" stroke="#A573EE" stroke-opacity="0.51" stroke-width="1.37673"></path>
</svg>
