<svg
        xmlns="http://www.w3.org/2000/svg"
        class="w-[4rem] h-[4rem] md:h-[5.8rem] md:w-[5.8rem] cursor-pointer"
        viewBox="0 0 58 58"
        fill="none">
    <path
            d="M52.5601 29.0012V47.1262C52.5601 49.5297 51.6053 51.8348 49.9057 53.5343C48.2062 55.2339 45.9011 56.1887 43.4976 56.1887H30.8101C30.3294 56.1887 29.8683 55.9977 29.5284 55.6578C29.1885 55.3179 28.9976 54.8569 28.9976 54.3762C28.9976 53.8955 29.1885 53.4345 29.5284 53.0946C29.8683 52.7547 30.3294 52.5637 30.8101 52.5637H43.4976C44.9397 52.5637 46.3227 51.9908 47.3425 50.9711C48.3622 49.9514 48.9351 48.5683 48.9351 47.1262H43.4976C42.0555 47.1262 40.6724 46.5533 39.6527 45.5336C38.6329 44.5139 38.0601 43.1308 38.0601 41.6887V32.6262C38.0601 31.1841 38.6329 29.801 39.6527 28.7813C40.6724 27.7616 42.0555 27.1887 43.4976 27.1887H48.8558C48.5128 23.4208 47.1048 19.8283 44.7962 16.8308C42.4876 13.8333 39.3738 11.5545 35.8185 10.2607C32.2631 8.96686 28.413 8.71134 24.7179 9.52401C21.0228 10.3367 17.6351 12.184 14.9507 14.8501C11.6126 18.1441 9.55379 22.5172 9.14162 27.1887H14.4976C15.9397 27.1887 17.3227 27.7616 18.3425 28.7813C19.3622 29.801 19.9351 31.1841 19.9351 32.6262V41.6887C19.9351 43.1308 19.3622 44.5139 18.3425 45.5336C17.3227 46.5533 15.9397 47.1262 14.4976 47.1262H10.8726C9.43045 47.1262 8.0474 46.5533 7.02767 45.5336C6.00794 44.5139 5.43506 43.1308 5.43506 41.6887V29.0012C5.44014 24.3338 6.82983 19.7728 9.42823 15.8955C12.0266 12.0183 15.7169 8.99906 20.032 7.22005C24.3471 5.44104 29.093 4.98221 33.6689 5.90164C38.2449 6.82107 42.4452 9.07743 45.7383 12.3851C47.9124 14.5699 49.6342 17.1622 50.8048 20.0134C51.9754 22.8647 52.5719 25.919 52.5601 29.0012Z"
            fill="url(#paint0_linear_1067_29811)" />
    <defs>
        <linearGradient
                id="paint0_linear_1067_29811"
                x1="28.9977"
                y1="5.43945"
                x2="28.9977"
                y2="56.1887"
                gradientUnits="userSpaceOnUse">
            <stop stop-color="#B383FF" />
            <stop
                    offset="1"
                    stop-color="#9459F1" />
        </linearGradient>
    </defs>
</svg>
