<svg
        xmlns="http://www.w3.org/2000/svg"
        class="w-[4rem] h-[4rem] md:h-[5.8rem] md:w-[5.8rem] cursor-pointer"
        viewBox="0 0 58 58"
        fill="none">
    <path
            d="M52.5606 38.0625H14.4664C15.069 36.8753 15.674 35.6541 16.2789 34.4126C19.6637 34.7864 23.6694 32.4188 28.2278 27.3393C28.3637 27.7154 28.5155 28.1028 28.6809 28.4948C30.1558 31.9498 32.059 33.9187 34.345 34.3514C36.6876 34.8045 39.0076 33.6196 41.3865 30.7672C42.9317 32.5955 46.1036 34.4375 52.5606 34.4375C53.0413 34.4375 53.5023 34.2465 53.8422 33.9066C54.1822 33.5667 54.3731 33.1057 54.3731 32.625C54.3731 32.1443 54.1822 31.6833 53.8422 31.3434C53.5023 31.0035 53.0413 30.8125 52.5606 30.8125C45.621 30.8125 43.6001 28.4132 43.4981 27.1377C43.4871 26.716 43.3293 26.3114 43.0521 25.9936C42.7748 25.6758 42.3954 25.4646 41.9792 25.3964C41.5629 25.3282 41.1359 25.4074 40.7718 25.6202C40.4076 25.833 40.1291 26.1661 39.9841 26.5622C37.2269 30.6969 35.5933 30.8986 34.9998 30.7898C33.1125 30.4341 31.3566 26.0479 30.7653 23.1977C30.6879 22.8378 30.5028 22.5099 30.2344 22.2578C29.9661 22.0057 29.6274 21.8412 29.2633 21.7864C28.8993 21.7315 28.5271 21.7888 28.1964 21.9507C27.8657 22.1126 27.5922 22.3713 27.4122 22.6925C22.9262 28.2705 19.9175 30.1691 18.0302 30.6539C19.9537 26.3764 21.3901 22.6223 22.31 19.4617C23.8551 14.1511 23.9684 10.4377 22.6521 8.11094C21.9724 6.89656 20.5473 5.44883 17.6881 5.4375H17.6315C14.0065 5.46242 11.1518 8.90391 9.78787 14.8852C8.97451 18.4445 8.84084 22.4048 9.41858 25.7602C9.99631 29.1155 11.1994 31.5398 12.9416 32.9852C12.0988 34.7366 11.2356 36.4471 10.3973 38.067H5.43561C4.9549 38.067 4.49389 38.258 4.15398 38.5979C3.81407 38.9378 3.62311 39.3988 3.62311 39.8795C3.62311 40.3602 3.81407 40.8212 4.15398 41.1612C4.49389 41.5011 4.9549 41.692 5.43561 41.692H8.47381C5.90912 46.4498 3.91537 49.7667 3.88365 49.8211C3.75444 50.0252 3.66732 50.2531 3.62743 50.4913C3.58753 50.7296 3.59567 50.9734 3.65135 51.2084C3.70704 51.4435 3.80915 51.6651 3.95168 51.8601C4.09422 52.0551 4.2743 52.2197 4.48135 52.3441C4.6884 52.4686 4.91823 52.5504 5.15734 52.5847C5.39646 52.6191 5.64002 52.6053 5.87373 52.5441C6.10743 52.483 6.32655 52.3758 6.51822 52.2287C6.70989 52.0817 6.87023 51.8978 6.98983 51.688C7.02381 51.6291 9.54319 47.4309 12.5859 41.692H52.5606C53.0413 41.692 53.5023 41.5011 53.8422 41.1612C54.1822 40.8212 54.3731 40.3602 54.3731 39.8795C54.3731 39.3988 54.1822 38.9378 53.8422 38.5979C53.5023 38.258 53.0413 38.067 52.5606 38.067V38.0625ZM43.4981 27.1875V27.1399C43.4996 27.1557 43.4996 27.1717 43.4981 27.1875Z"
            fill="url(#paint0_linear_1067_29819)" />
    <defs>
        <linearGradient
                id="paint0_linear_1067_29819"
                x1="28.9878"
                y1="5.4375"
                x2="28.9878"
                y2="52.6031"
                gradientUnits="userSpaceOnUse">
            <stop stop-color="#B383FF" />
            <stop
                    offset="1"
                    stop-color="#9459F1" />
        </linearGradient>
    </defs>
</svg>
