<svg width="58" height="58" viewBox="0 0 58 58" fill="none" xmlns="http://www.w3.org/2000/svg">
    <path d="M37.0617 9.5353C37.5342 9.73166 38.1138 9.81959 38.6794 9.86634C39.2487 9.91339 39.8698 9.92285 40.4533 9.93174L40.4729 9.93203C40.4729 9.93203 40.473 9.93204 40.473 9.93204C42.7464 9.96698 44.9439 10.0309 46.456 11.543C47.9681 13.0551 48.032 15.2527 48.067 17.5261L48.0673 17.5459C48.0762 18.1293 48.0856 18.7503 48.1327 19.3196C48.1794 19.8847 48.2672 20.4636 48.4631 20.9359C48.6702 21.4389 49.0286 21.9356 49.4111 22.394C49.7899 22.8481 50.2306 23.3086 50.6455 23.7422L50.6731 23.7711L50.6737 23.7717C52.221 25.3843 53.6857 26.9589 53.6857 29C53.6857 31.0411 52.2207 32.6183 50.6741 34.2279L50.6731 34.2289L50.6571 34.2456C50.2385 34.6831 49.7933 35.1484 49.4109 35.607C49.0287 36.0654 48.6706 36.5618 48.4635 37.0631M37.0617 9.5353C36.5605 9.3282 36.0643 8.97022 35.606 8.5881C35.1474 8.20576 34.6821 7.76053 34.2447 7.34196L34.228 7.32595L34.2269 7.32496C32.6173 5.77831 31.0401 4.31337 28.999 4.31337C26.9579 4.31337 25.3834 5.77805 23.7708 7.3253L23.7701 7.32595L23.7414 7.35345C23.3077 7.76839 22.8472 8.20911 22.3931 8.58796C21.9352 8.96997 21.4391 9.32796 20.9367 9.53517C20.4656 9.73188 19.8855 9.81968 19.3203 9.86634C18.7506 9.91337 18.1287 9.92284 17.5455 9.93173L17.5251 9.93203C17.5251 9.93203 17.5251 9.93204 17.5251 9.93204C15.2516 9.96698 13.0541 10.0309 11.542 11.543C10.0304 13.0547 9.97775 15.2483 9.93103 17.5279C9.93102 17.5285 9.93101 17.5291 9.93099 17.5296L9.93076 17.5457C9.92187 18.1292 9.91241 18.7503 9.86536 19.3196C9.81862 19.8852 9.73068 20.4648 9.53432 20.9374C9.32723 21.4385 8.96924 21.9347 8.58712 22.393C8.20478 22.8516 7.75955 23.3169 7.34098 23.7543L7.32498 23.7711L7.32398 23.7721C5.77733 25.3817 4.31239 26.9589 4.31239 29C4.31239 31.0411 5.77708 32.6157 7.32432 34.2283L7.32498 34.2289L7.3525 34.2577C7.76743 34.6913 8.20814 35.1519 8.58699 35.606C8.96944 36.0644 9.32781 36.5611 9.53491 37.0641C9.73085 37.5364 9.81866 38.1153 9.86536 38.6804C9.91241 39.2497 9.92187 39.8708 9.93076 40.4543L9.93106 40.4739C9.93106 40.4739 9.93106 40.4739 9.93106 40.474C9.966 42.7474 10.0299 44.9449 11.542 46.457C13.0541 47.9691 15.2517 48.033 17.5251 48.068L17.5449 48.0683C18.1283 48.0772 18.7494 48.0866 19.3186 48.1337C19.8839 48.1804 20.4632 48.2682 20.9356 48.4644C21.437 48.6714 21.9335 49.0296 22.392 49.4119C22.8507 49.7943 23.316 50.2396 23.7535 50.6581L23.7701 50.674L23.7711 50.675C25.3808 52.2217 26.9579 53.6866 28.999 53.6866C31.0401 53.6866 32.6147 52.2219 34.2273 50.6747L34.228 50.674L34.2566 50.6466C34.6903 50.2317 35.1509 49.7909 35.605 49.412C36.0634 49.0296 36.5601 48.6712 37.0631 48.4641C37.5354 48.2682 38.1143 48.1804 38.6794 48.1337C39.2487 48.0866 39.8697 48.0772 40.4531 48.0683L40.4729 48.068C42.7464 48.033 44.9439 47.9691 46.456 46.457C47.9681 44.9449 48.032 42.7473 48.067 40.4739L48.0673 40.4541C48.0762 39.8707 48.0856 39.2497 48.1327 38.6804C48.1794 38.1149 48.2673 37.5356 48.4635 37.0631M37.0617 9.5353C37.0619 9.53541 37.0622 9.53552 37.0625 9.53563L37.3252 8.89937M37.0617 9.5353C37.0614 9.53519 37.0611 9.53507 37.0609 9.53496L37.3252 8.89937M48.4635 37.0631C48.4635 37.0632 48.4634 37.0633 48.4634 37.0634L49.0996 37.3262L48.4641 37.0618C48.4639 37.0623 48.4637 37.0627 48.4635 37.0631ZM37.3252 8.89937C36.521 8.56729 35.6018 7.68782 34.7116 6.83598L34.7039 6.82859C33.1406 5.32648 31.3643 3.625 28.999 3.625C26.6337 3.625 24.8597 5.32648 23.2942 6.82859L23.2736 6.84828C22.3874 7.69627 21.4755 8.56889 20.6729 8.89937H37.3252ZM8.8984 20.6738C8.56631 21.4781 7.68684 22.3972 6.835 23.2874L6.82762 23.2952C5.32551 24.8584 3.62402 26.6347 3.62402 29C3.62402 31.3653 5.32551 33.1393 6.82762 34.7048L8.8984 20.6738ZM36.2924 21.7935L25.3741 32.7139L21.7057 29.0435L21.7056 29.0434C21.2364 28.5742 20.6001 28.3106 19.9365 28.3106C19.273 28.3106 18.6366 28.5742 18.1674 29.0434C17.6982 29.5126 17.4346 30.149 17.4346 30.8125C17.4346 31.476 17.6982 32.1124 18.1674 32.5816L23.6047 38.0188C23.8369 38.2513 24.1127 38.4358 24.4163 38.5617C24.7199 38.6875 25.0454 38.7523 25.374 38.7523C25.7027 38.7523 26.0281 38.6875 26.3317 38.5617C26.6353 38.4358 26.9111 38.2513 27.1434 38.0188L39.8306 25.3316C40.0629 25.0993 40.2472 24.8235 40.373 24.5199C40.4987 24.2164 40.5634 23.8911 40.5634 23.5625C40.5634 23.2339 40.4987 22.9086 40.373 22.6051C40.2472 22.3015 40.0629 22.0257 39.8306 21.7934C39.5983 21.5611 39.3225 21.3768 39.019 21.2511C38.7154 21.1253 38.3901 21.0606 38.0615 21.0606C37.733 21.0606 37.4076 21.1253 37.1041 21.2511C36.8006 21.3768 36.5248 21.5611 36.2924 21.7934L36.2924 21.7935Z" stroke="#A573EE" stroke-opacity="0.51" stroke-width="1.37673"></path>
</svg>
