<svg
        xmlns="http://www.w3.org/2000/svg"
        class="w-[4rem] h-[4rem] md:h-[5.8rem] md:w-[5.8rem] cursor-pointer"
        viewBox="0 0 58 58"
        fill="none">
    <path
            d="M51.1704 23.2952C50.3163 22.4025 49.4327 21.4827 49.0996 20.6738C48.7915 19.933 48.7734 18.705 48.7553 17.5155C48.7213 15.3043 48.685 12.7985 46.9428 11.0562C45.2005 9.31398 42.6947 9.27773 40.4835 9.24375C39.294 9.22562 38.0661 9.2075 37.3252 8.89937C36.5186 8.56633 35.5965 7.68273 34.7039 6.82859C33.1406 5.32648 31.3643 3.625 28.999 3.625C26.6337 3.625 24.8597 5.32648 23.2942 6.82859C22.4015 7.68273 21.4817 8.56633 20.6729 8.89937C19.9365 9.2075 18.704 9.22562 17.5146 9.24375C15.3033 9.27773 12.7975 9.31398 11.0553 11.0562C9.31301 12.7985 9.28809 15.3043 9.24277 17.5155C9.22465 18.705 9.20652 19.933 8.8984 20.6738C8.56535 21.4804 7.68176 22.4025 6.82762 23.2952C5.32551 24.8584 3.62402 26.6347 3.62402 29C3.62402 31.3653 5.32551 33.1393 6.82762 34.7048C7.68176 35.5975 8.56535 36.5173 8.8984 37.3262C9.20652 38.067 9.22465 39.295 9.24277 40.4845C9.27676 42.6957 9.31301 45.2015 11.0553 46.9437C12.7975 48.686 15.3033 48.7223 17.5146 48.7562C18.704 48.7744 19.932 48.7925 20.6729 49.1006C21.4794 49.4337 22.4015 50.3173 23.2942 51.1714C24.8575 52.6735 26.6337 54.375 28.999 54.375C31.3643 54.375 33.1383 52.6735 34.7039 51.1714C35.5965 50.3173 36.5164 49.4337 37.3252 49.1006C38.0661 48.7925 39.294 48.7744 40.4835 48.7562C42.6947 48.7223 45.2005 48.686 46.9428 46.9437C48.685 45.2015 48.7213 42.6957 48.7553 40.4845C48.7734 39.295 48.7915 38.067 49.0996 37.3262C49.4327 36.5196 50.3163 35.5975 51.1704 34.7048C52.6725 33.1416 54.374 31.3653 54.374 29C54.374 26.6347 52.6725 24.8607 51.1704 23.2952ZM39.3439 24.8448L26.6564 37.5323C26.488 37.7009 26.2881 37.8346 26.0681 37.9258C25.8481 38.017 25.6122 38.0639 25.374 38.0639C25.1358 38.0639 24.9 38.017 24.6799 37.9258C24.4599 37.8346 24.26 37.7009 24.0917 37.5323L18.6542 32.0948C18.3141 31.7547 18.123 31.2935 18.123 30.8125C18.123 30.3315 18.3141 29.8703 18.6542 29.5302C18.9943 29.1901 19.4556 28.999 19.9365 28.999C20.4175 28.999 20.8788 29.1901 21.2189 29.5302L25.374 33.6876L36.7792 22.2802C36.9476 22.1118 37.1475 21.9782 37.3675 21.887C37.5875 21.7959 37.8234 21.749 38.0615 21.749C38.2997 21.749 38.5355 21.7959 38.7555 21.887C38.9755 21.9782 39.1755 22.1118 39.3439 22.2802C39.5123 22.4486 39.6458 22.6485 39.737 22.8685C39.8281 23.0885 39.875 23.3243 39.875 23.5625C39.875 23.8007 39.8281 24.0365 39.737 24.2565C39.6458 24.4765 39.5123 24.6764 39.3439 24.8448Z"
            fill="url(#paint0_linear_1067_29815)" />
    <defs>
        <linearGradient
                id="paint0_linear_1067_29815"
                x1="28.999"
                y1="3.625"
                x2="28.999"
                y2="54.375"
                gradientUnits="userSpaceOnUse">
            <stop stop-color="#B383FF" />
            <stop
                    offset="1"
                    stop-color="#9459F1" />
        </linearGradient>
    </defs>
</svg>
