<svg
        xmlns="http://www.w3.org/2000/svg"
        class="w-[4rem] h-[4rem] md:h-[5.8rem] md:w-[5.8rem] cursor-pointer"
        viewBox="0 0 58 58"
        fill="none">
    <path
            d="M43.4768 10.0705L30.1885 5.09342C28.8114 4.58605 26.5645 4.58605 25.1873 5.09342L11.8991 10.0705C9.33805 11.0369 7.26025 14.0328 7.26025 16.7629V36.3329C7.26025 38.2899 8.54076 40.8751 10.1112 42.0348L23.3995 51.9647C25.743 53.7285 29.5845 53.7285 31.9281 51.9647L45.2164 42.0348C46.7868 40.8509 48.0673 38.2899 48.0673 36.3329V16.7629C48.0915 14.0328 46.0137 11.0369 43.4768 10.0705ZM36.0837 23.6003L25.6947 33.9894C25.3323 34.3518 24.8732 34.5209 24.4142 34.5209C23.9551 34.5209 23.4961 34.3518 23.1337 33.9894L19.268 30.0754C18.5674 29.3747 18.5674 28.215 19.268 27.5143C19.9687 26.8137 21.1284 26.8137 21.829 27.5143L24.4384 30.1237L33.5469 21.0152C34.2475 20.3145 35.4072 20.3145 36.1079 21.0152C36.8085 21.7158 36.8085 22.8997 36.0837 23.6003Z"
            fill="url(#paint0_linear_1067_29807)" />
    <defs>
        <linearGradient
                id="paint0_linear_1067_29807"
                x1="27.6639"
                y1="4.71289"
                x2="27.6639"
                y2="53.2875"
                gradientUnits="userSpaceOnUse">
            <stop stop-color="#B383FF" />
            <stop
                    offset="1"
                    stop-color="#9459F1" />
        </linearGradient>
    </defs>
</svg>
