<svg width="18" height="19" viewBox="0 0 18 19" fill="none" xmlns="http://www.w3.org/2000/svg">
<path d="M15.2222 8.05643L9.59717 13.6814C9.51878 13.7601 9.42564 13.8225 9.32308 13.8651C9.22052 13.9077 9.11056 13.9296 8.99951 13.9296C8.88846 13.9296 8.7785 13.9077 8.67594 13.8651C8.57339 13.8225 8.48024 13.7601 8.40185 13.6814L2.77685 8.05643C2.61835 7.89792 2.5293 7.68294 2.5293 7.45877C2.5293 7.23461 2.61835 7.01962 2.77685 6.86111C2.93536 6.70261 3.15035 6.61356 3.37451 6.61356C3.59868 6.61356 3.81366 6.70261 3.97217 6.86111L9.00021 11.8892L14.0283 6.86041C14.1868 6.7019 14.4018 6.61285 14.6259 6.61285C14.8501 6.61285 15.0651 6.7019 15.2236 6.86041C15.3821 7.01892 15.4711 7.2339 15.4711 7.45807C15.4711 7.68223 15.3821 7.89722 15.2236 8.05572L15.2222 8.05643Z" fill="#8F55EA"/>
</svg>
