<svg width="25" height="25" viewBox="0 0 25 25" fill="none" xmlns="http://www.w3.org/2000/svg">
<path d="M18.5195 2.97192H6.51953C4.31039 2.97192 2.51953 4.76278 2.51953 6.97192V18.9719C2.51953 21.1811 4.31039 22.9719 6.51953 22.9719H18.5195C20.7287 22.9719 22.5195 21.1811 22.5195 18.9719V6.97192C22.5195 4.76278 20.7287 2.97192 18.5195 2.97192ZM18.5195 2.97192L14.5195 8.97192M2.51953 8.97192H22.5195M10.5195 2.97192L6.51953 8.97192M10.5195 14.7747V17.1691C10.5195 18.3672 11.8547 19.0818 12.8516 18.4172L14.6474 17.22C15.538 16.6263 15.538 15.3176 14.6474 14.7238L12.8516 13.5266C11.8547 12.8621 10.5195 13.5767 10.5195 14.7747Z" stroke="#8F55EA" stroke-width="1.5" stroke-linejoin="round"/>
</svg>
