<svg width="16" height="16" viewBox="0 0 16 16" fill="none" xmlns="http://www.w3.org/2000/svg">
<path d="M12.8937 6.23827L8.21828 10.9137C8.17486 10.9572 8.1233 10.9917 8.06654 11.0152C8.00978 11.0387 7.94894 11.0508 7.8875 11.0508C7.82605 11.0508 7.76521 11.0387 7.70846 11.0152C7.6517 10.9917 7.60013 10.9572 7.55671 10.9137L2.88127 6.23827C2.8158 6.17289 2.77122 6.08954 2.75314 5.9988C2.73507 5.90806 2.74433 5.81399 2.77975 5.72851C2.81517 5.64304 2.87515 5.56999 2.95211 5.51862C3.02906 5.46725 3.11953 5.43987 3.21205 5.43994H12.5629C12.6555 5.43987 12.7459 5.46725 12.8229 5.51862C12.8998 5.56999 12.9598 5.64304 12.9952 5.72851C13.0307 5.81399 13.0399 5.90806 13.0218 5.9988C13.0038 6.08954 12.9592 6.17289 12.8937 6.23827Z" fill="#875DED"/>
</svg>
