<svg width="17" height="18" viewBox="0 0 17 18" fill="none" xmlns="http://www.w3.org/2000/svg">
<path fill-rule="evenodd" clip-rule="evenodd" d="M0.685547 14.4122L0.685547 4.03272C0.685547 2.1219 2.23457 0.572876 4.14539 0.572876L12.795 0.572876C14.7058 0.572876 16.2548 2.1219 16.2548 4.03272V9.51928C16.2548 9.78549 16.2241 10.0485 16.1647 10.3037H12.795C10.5259 10.3037 8.68642 12.1431 8.68642 14.4122V17.782C8.43127 17.8414 8.16823 17.8721 7.90203 17.8721H4.14539C2.23457 17.8721 0.685547 16.323 0.685547 14.4122ZM9.98386 17.1757C10.1119 17.0792 10.2338 16.9734 10.3485 16.8587L15.2415 11.9658C15.3561 11.8511 15.4619 11.7292 15.5584 11.6011H12.795C11.2424 11.6011 9.98386 12.8597 9.98386 14.4122V17.1757Z" fill="#645F93"/>
</svg>
