<svg width="27" height="27" viewBox="0 0 27 27" fill="none" xmlns="http://www.w3.org/2000/svg">
<path d="M2.73438 5.14538C2.73438 3.95351 3.70058 2.9873 4.89245 2.9873H9.2086C10.4005 2.9873 11.3667 3.95351 11.3667 5.14538V7.30346C11.3667 8.49533 10.4005 9.46153 9.2086 9.46153H4.89245C3.70058 9.46153 2.73438 8.49533 2.73438 7.30346V5.14538Z" stroke="#875DED" stroke-width="1.84978" stroke-linejoin="round"/>
<path d="M2.73438 15.9358C2.73438 14.7439 3.70058 13.7777 4.89245 13.7777H9.2086C10.4005 13.7777 11.3667 14.7439 11.3667 15.9358V22.41C11.3667 23.6019 10.4005 24.5681 9.2086 24.5681H4.89245C3.70058 24.5681 2.73438 23.6019 2.73438 22.41V15.9358Z" stroke="#875DED" stroke-width="1.84978" stroke-linejoin="round"/>
<path d="M15.6828 5.14538C15.6828 3.95351 16.649 2.9873 17.8409 2.9873H22.1571C23.3489 2.9873 24.3151 3.95351 24.3151 5.14538V11.6196C24.3151 12.8115 23.3489 13.7777 22.1571 13.7777H17.8409C16.649 13.7777 15.6828 12.8115 15.6828 11.6196V5.14538Z" stroke="#875DED" stroke-width="1.84978" stroke-linejoin="round"/>
<path d="M15.6828 20.2519C15.6828 19.06 16.649 18.0938 17.8409 18.0938H22.1571C23.3489 18.0938 24.3151 19.06 24.3151 20.2519V22.41C24.3151 23.6019 23.3489 24.5681 22.1571 24.5681H17.8409C16.649 24.5681 15.6828 23.6019 15.6828 22.41V20.2519Z" stroke="#875DED" stroke-width="1.84978" stroke-linejoin="round"/>
</svg>
