<svg width="21" height="22" viewBox="0 0 21 22" fill="none" xmlns="http://www.w3.org/2000/svg">
<path fill-rule="evenodd" clip-rule="evenodd" d="M4.70305 4.74918L9.06099 2.71955C9.96283 2.29954 10.9923 2.29954 11.8941 2.71955L16.2348 4.74113C17.5041 5.3323 18.3373 6.66097 18.2483 8.11355C17.9072 13.6853 16.3871 16.2041 12.2778 19.1262C11.1934 19.8973 9.76288 19.8954 8.67763 19.1255C4.58102 16.2192 3.00447 13.7356 2.69088 8.09401C2.61067 6.65097 3.44252 5.33625 4.70305 4.74918ZM13.5532 9.75141C13.7892 9.48178 13.7619 9.07195 13.4922 8.83602C13.2226 8.60009 12.8128 8.62741 12.5768 8.89704L10.0945 11.734C10.0183 11.8211 9.88701 11.8328 9.79665 11.7605L8.28053 10.5476C8.00076 10.3238 7.59253 10.3691 7.36871 10.6489C7.1449 10.9287 7.19026 11.3369 7.47003 11.5607L8.98615 12.7736C9.61868 13.2796 10.5375 13.198 11.0709 12.5884L13.5532 9.75141Z" fill="#645F93"/>
</svg>
